PathFileType	4	(X/Y/Z)	RBDS026\RBDS026runT25.trc
DataRate	CameraRate	NumFrames	NumMarkers	Units	OrigDataRate	OrigDataStartFrame	OrigNumFrames
150.000000	150.000000	6	33	mm	150.000000	0	4500
Frame#	Time	L.ASIS			L.Heel.Bottom			L.Heel.Lateral			L.Heel.Top			L.Iliac.Crest			L.MT1			L.MT5			L.PSIS			L.Shank.Bottom.Lateral			L.Shank.Bottom.Medial			L.Shank.Top.Lateral			L.Shank.Top.Medial			L.Thigh.Bottom.Lateral			L.Thigh.Bottom.Medial			L.Thigh.Top.Lateral			L.Thigh.Top.Medial			R.ASIS			R.ASY			R.Heel.Bottom			R.Heel.Lateral			R.Heel.Top			R.Iliac.Crest			R.MT1			R.MT5			R.PSIS			R.Shank.Bottom.Lateral			R.Shank.Bottom.Medial			R.Shank.Top.Lateral			R.Shank.Top.Medial			R.Thigh.Bottom.Lateral			R.Thigh.Bottom.Medial			R.Thigh.Top.Lateral			R.Thigh.Top.Medial			
		X1	Y1	Z1	X2	Y2	Z2	X3	Y3	Z3	X4	Y4	Z4	X5	Y5	Z5	X6	Y6	Z6	X7	Y7	Z7	X8	Y8	Z8	X9	Y9	Z9	X10	Y10	Z10	X11	Y11	Z11	X12	Y12	Z12	X13	Y13	Z13	X14	Y14	Z14	X15	Y15	Z15	X16	Y16	Z16	X17	Y17	Z17	X18	Y18	Z18	X19	Y19	Z19	X20	Y20	Z20	X21	Y21	Z21	X22	Y22	Z22	X23	Y23	Z23	X24	Y24	Z24	X25	Y25	Z25	X26	Y26	Z26	X27	Y27	Z27	X28	Y28	Z28	X29	Y29	Z29	X30	Y30	Z30	X31	Y31	Z31	X32	Y32	Z32	X33	Y33	Z33	

1	0	2274.10330851668	1055.671542508783	876.8687795545687	1647.213194541159	313.4084012965139	951.9512466547072	1669.358573610365	303.2674068501365	895.5490113658077	1692.343944876075	328.4973209910764	944.4517749691837	2207.725491003026	1142.431320379356	837.6589051291139	1764.368380706856	122.3875119748062	921.5277394584805	1716.564995106737	171.2572035302717	831.7557319568863	2104.938857910736	1109.693409419823	953.1700250346254	1788.946009599509	336.1070374049061	858.2591712682251	1769.798779856117	368.7172506281042	892.587213685644	1845.777924514636	389.0161115403628	834.5917967023514	1827.992416519824	425.4985094953045	868.7360068191759	2104.443576962788	664.4668205853407	811.9883554617805	2052.295868219893	675.3805499977867	862.0053187346725	2117.319358957739	773.254184584941	802.2860423227388	2068.70223436527	782.8475000153637	852.2711225385488	2270.559868270279	1075.748737688146	1112.7045995145	2467.278442754035	128.3428854221128	1054.699602278781	2307.269257930598	28.67199209432996	1023.368382482847	2332.138472685613	47.43044654826325	1073.062347074778	2302.44593311473	74.07571682592517	1032.107668640818	2201.454513551753	1146.830963440572	1155.662930204754	2515.486310655501	111.0939722360752	1000.265372968166	2491.137445875157	71.66743173936563	1104.594523205689	2106.154714754018	1109.679169757977	1053.055217567302	2349.712919268926	181.9409711229061	1106.434701760794	2302.951288341972	178.7524750142271	1076.150083355485	2327.059668194112	255.9446311258342	1131.469682915854	2281.887223719046	252.2419563829114	1101.224651038336	2302.869865212157	649.8079070519977	1169.980906999951	2237.932000670128	633.7381102320559	1145.846546657603	2272.206806704788	755.0578384835197	1184.298241377265	2209.279158570896	739.0590446058619	1163.251164754231	
2	0.006666666666666667	2273.864803963667	1051.272852819557	877.4737697406923	1648.040310469659	318.9345190385656	951.7270905436022	1670.133661466448	309.3475368291151	895.1189206398767	1693.446320063696	333.2227292734144	944.4535357584243	2207.353714134507	1137.351514814604	837.799438042073	1761.717093375617	126.4757608510078	918.1374290663078	1715.024155402409	177.7590814320947	829.1550980752894	2104.317379913319	1103.260732941812	953.2023189003661	1790.759067266408	338.9917722097335	857.6142523890802	1772.697889051954	372.0855286777202	892.0263301653569	1849.079887978326	390.1070356325069	833.965872093574	1832.5067416068	427.0078739701868	868.1708714236448	2109.779639000521	657.6770957000861	811.8393361343901	2057.522750422288	667.734696062896	861.9870555503678	2120.961772610394	766.6465286422982	802.2838425668753	2072.280970152958	775.4196449014343	852.3933788628475	2270.212848451161	1071.786232839635	1113.492419871745	2458.103107879187	120.755023817526	1052.391620548039	2294.465300316765	27.85487024557872	1022.84391076746	2320.377365507023	46.23145967853418	1072.104797668264	2291.995025079008	73.24711419988387	1030.544728467343	2199.449901777222	1141.942051739043	1155.555762965555	2505.051476991467	100.9296836896288	998.0874991062065	2480.028611576525	64.3649642330747	1103.046336360972	2105.55431290571	1103.430501705647	1053.076588357563	2342.820108739325	176.4526254364316	1105.029891651963	2295.504853582601	174.1985417388322	1075.531242829798	2321.983695506588	250.7386116847556	1130.650568510612	2276.332809046633	247.9341515753107	1101.14294709766	2303.549207029107	645.0513387097055	1169.772036557464	2238.485310872879	628.7805943286719	1145.994044743211	2272.749819176984	750.2351781874075	1183.993351146851	2209.674887855531	734.0459708285626	1163.468756780544	
3	0.01333333333333333	2273.562531812978	1046.787189739985	878.0097161385708	1649.119872655346	324.3516198535079	951.4039743209111	1671.191591873829	315.299728128763	894.6187640068515	1694.795720489246	337.8570999545499	944.3811772771419	2206.928391871805	1132.081068565213	837.8896472526563	1759.403248855002	130.4932702533784	914.7941720628107	1713.852856636114	184.122340371335	826.5658847591325	2103.633053833648	1096.775281285394	953.2538356882087	1792.840728177146	341.7821438561023	856.939508356172	1775.848399405977	375.3596903979959	891.4184682121353	1852.626133652794	391.108808086712	833.3081117490774	1837.246440349998	428.4261879091599	867.5584478815045	2115.170486650764	650.8723349694856	811.6724275688038	2062.797735829343	660.0533839375187	861.9352920956094	2124.63357232712	760.0141995282161	802.274714445781	2075.888617690248	767.9520857007078	852.5009734140643	2269.883165363147	1067.690893119447	1114.225505137317	2448.587883841989	113.4363646418913	1050.066838495762	2281.451463784621	27.10535092693639	1022.302124092263	2308.364513618892	45.14314680385662	1071.135400090694	2281.255855471378	72.48278148332605	1028.966187208728	2197.535954265382	1136.845302127831	1155.492532717988	2494.351498588211	91.09368615863214	995.9387786572286	2468.646913024989	57.43735791202617	1101.553040017849	2104.893911903058	1097.180642817401	1053.09221279488	2335.653122677881	171.1334091453921	1103.576909933271	2287.809865605824	169.874268568044	1074.859489680864	2316.690730678808	245.690493772328	1129.798759759441	2270.577688722223	243.8424892319968	1101.020618304867	2304.191691713188	640.3659424795325	1169.609328235366	2238.999311552277	623.8876411832434	1146.195150312737	2273.241239769622	745.4781172956203	1183.743182260239	2210.028429349667	729.094038276813	1163.724244764434	
4	0.02	2273.137120759255	1042.122215188332	878.4148790171528	1650.680430586302	329.577657699926	950.8843251668179	1672.78915243314	321.0211352135537	893.9769680326574	1696.61629173144	342.3325769321632	944.1594251714757	2206.381225065751	1126.465737813621	837.8854611384548	1757.725213144137	134.3854031673747	911.5405112590138	1713.382733735942	190.2291527003219	823.9940416040487	2102.827752817483	1090.192705218024	953.3283822126365	1795.435541436395	344.3997223505152	856.2032034146467	1779.480354438337	378.4623649969193	890.7155365778899	1856.640830325279	391.9445564617702	832.5859064045704	1842.4203664753	429.675454570067	866.8528527967957	2120.669501231102	644.0310216463967	811.4696773998944	2068.16928254111	652.2965671409626	861.8196422777346	2128.364111740631	753.3288183609484	802.2515857861019	2079.55489819753	760.4008638777409	852.5784400492763	2269.575233838093	1063.346875704894	1114.862926785472	2438.438540607656	106.6340958731182	1047.72490651155	2268.049890512182	26.48791595631487	1021.735461472035	2295.885535635001	44.26380040856572	1070.151962590133	2269.979194656436	71.84492214727575	1027.372296641234	2195.781860805966	1131.384402754833	1155.504058437888	2483.153476121228	81.895119254897	993.8533349997138	2456.755639459402	51.21423049287117	1100.165911411936	2104.114762552406	1090.929235419474	1053.086470394315	2327.977250936282	166.1407538075675	1102.050503131149	2279.655225282081	165.9919320263484	1074.107820316297	2311.002224981234	240.9450730945564	1128.901320637633	2264.459129040489	240.1656136630024	1100.839486002273	2304.770876578408	635.81098641543	1169.536973406591	2239.450078085047	619.1110843590449	1146.490138292854	2273.636114251158	740.8404360216354	1183.599204757784	2210.306365491172	724.2513739149308	1164.044200069549	
5	0.02666666666666667	2272.54140820546	1037.214105088504	878.6433485973494	1652.906819396674	334.5402963346957	950.0885924238022	1675.135103650156	326.4213518302659	893.1337220233974	1699.088664084465	346.5898616242305	943.7255056773697	2205.646598633552	1120.398604256236	837.755363760619	1756.934475426221	138.1038081799212	908.4159705772222	1713.889710748774	195.9765967213887	821.4461258876377	2101.856107325515	1083.503455230484	953.4200675076097	1798.741332316453	346.7815906622311	855.3809021153166	1783.777006278974	381.3304072165954	889.8802892376337	1861.303464077451	392.5572782986586	831.7761135769471	1848.192776502226	430.6968648221459	866.0214369922512	2126.318700334179	637.1554816654281	811.2193855061142	2073.675234198337	644.4521309930153	861.6164164974764	2132.177487445801	746.5866511830562	802.2104837701593	2083.301018702356	752.7500429858093	852.6106941908408	2269.281515810337	1058.682456207718	1115.382102735615	2427.442109349709	100.5541415549403	1045.390166599378	2254.14217850377	26.05309078290749	1021.149962791187	2282.794376834471	43.66278409527875	1069.166888478902	2257.986701958724	71.38342064983817	1025.786248945267	2194.234630178601	1125.458370663815	1155.613622532017	2471.288228885465	73.6045346085582	991.8710813878968	2444.18905137504	45.9445767688695	1098.926959963097	2103.168712563222	1084.699579425132	1053.037414090664	2319.619289528203	161.6142327578818	1100.456596936669	2270.886705118315	162.7302839243533	1073.282817319088	2304.785392240602	236.6323053899777	1127.968749403489	2257.858240683454	237.0714953511393	1100.607588255916	2305.26129520298	631.4432192533701	1169.587352151148	2239.817012689851	614.502995981852	1146.899722848709	2273.893717868657	736.3749647690049	1183.599388197521	2210.477737525398	719.5663442038129	1164.443536432733	
6	0.03333333333333333	2271.743337604616	1032.038116475379	878.6702086310207	1655.932670341139	339.1775820210361	948.9609165971416	1678.381162399187	331.4244991618815	892.0449214992219	1702.342532645872	350.5789623762637	943.0332308290352	2204.662485079217	1113.83831264053	837.4844410430237	1757.228310380991	141.6067855199254	905.4560374433796	1715.583292319254	201.279484346661	818.9299276107095	2100.688828784156	1076.741930314123	953.5115288696031	1802.900961974224	348.8838716049474	854.4577947558379	1788.866385700629	383.9180912635114	888.8896912902813	1866.741174014424	392.9149874162621	830.8680487683957	1854.67551783318	431.455824987351	865.0486367116704	2132.14994724187	630.2790701167038	810.9186825504237	2079.344453012382	636.5435547055852	861.3114865235843	2136.093683587526	739.815531172658	802.1514172961334	2087.140344547004	745.0188444249904	852.5837114571707	2268.979218265648	1053.683612761691	1115.783453491251	2415.480824126958	95.34410655417065	1043.116258829144	2239.675205692221	25.83336815403626	1020.567563785178	2269.021563722858	43.37300585121723	1068.209632353717	2245.181520288247	71.13200818386095	1024.257181276288	2192.909718693664	1119.040536824205	1155.83286848678	2458.659337533816	66.43344426568615	990.0385279456781	2430.861800886304	41.77139106776962	1097.867900871923	2102.021761255388	1078.543585533837	1052.916589500009	2310.476645581743	157.66560910723	1098.838046618093	2261.414444004608	160.219946832619	1072.430886023974	2297.957664731994	232.857738082547	1127.039309395955	2250.703677270426	234.6832587337235	1100.3641846133	2305.630673289028	627.3115865418233	1169.777973526361	2240.075282004271	610.1125440864976	1147.420426310093	2273.973236850849	732.1295044018589	1183.764140997535	2210.508905094049	715.08536736775	1164.921781326096	
